<?xml version="1.0" encoding="UTF-8" standalone="no"?>
<!-- Generator: Adobe Illustrator 12.0.0, SVG Export Plug-In . SVG Version: 6.00 Build 51448)  -->

<svg
   xmlns:dc="http://purl.org/dc/elements/1.1/"
   xmlns:cc="http://creativecommons.org/ns#"
   xmlns:rdf="http://www.w3.org/1999/02/22-rdf-syntax-ns#"
   xmlns:svg="http://www.w3.org/2000/svg"
   xmlns="http://www.w3.org/2000/svg"
   xmlns:sodipodi="http://sodipodi.sourceforge.net/DTD/sodipodi-0.dtd"
   xmlns:inkscape="http://www.inkscape.org/namespaces/inkscape"
   version="1.1"
   id="svg2"
   inkscape:version="0.47pre4 "
   sodipodi:docname="7-Segment Display, 0.36in, Single (shaded).svg"
   width="300"
   height="350"
   viewBox="0 0 299.99999 349.99999"
   overflow="visible"
   enable-background="new 0 0 595.275 841.89"
   xml:space="preserve"
   style="overflow:visible"><metadata
   id="metadata4222"><rdf:RDF><cc:Work
       rdf:about=""><dc:format>image/svg+xml</dc:format><dc:type
         rdf:resource="http://purl.org/dc/dcmitype/StillImage" /><dc:title /></cc:Work></rdf:RDF></metadata>
<defs
   id="defs3906">
	
	
		<inkscape:perspective
   inkscape:persp3d-origin="372.04724 : 350.78739 : 1"
   inkscape:vp_y="0 : 1000 : 0"
   sodipodi:type="inkscape:persp3d"
   inkscape:vp_x="0 : 526.18109 : 1"
   inkscape:vp_z="744.09448 : 526.18109 : 1"
   id="perspective10">
		</inkscape:perspective>
	
		<inkscape:perspective
   inkscape:persp3d-origin="0.5 : 0.33333333 : 1"
   inkscape:vp_y="0 : 1000 : 0"
   sodipodi:type="inkscape:persp3d"
   inkscape:vp_x="0 : 0.5 : 1"
   inkscape:vp_z="1 : 0.5 : 1"
   id="perspective2824">
		</inkscape:perspective>
	
		<inkscape:perspective
   inkscape:persp3d-origin="0.5 : 0.33333333 : 1"
   inkscape:vp_y="0 : 1000 : 0"
   sodipodi:type="inkscape:persp3d"
   inkscape:vp_x="0 : 0.5 : 1"
   inkscape:vp_z="1 : 0.5 : 1"
   id="perspective17489">
		</inkscape:perspective>
	
		<inkscape:perspective
   inkscape:persp3d-origin="0.5 : 0.33333333 : 1"
   inkscape:vp_y="0 : 1000 : 0"
   sodipodi:type="inkscape:persp3d"
   inkscape:vp_x="0 : 0.5 : 1"
   inkscape:vp_z="1 : 0.5 : 1"
   id="perspective3212">
		</inkscape:perspective>
	
		<inkscape:perspective
   inkscape:persp3d-origin="0.5 : 0.33333333 : 1"
   inkscape:vp_y="0 : 1000 : 0"
   sodipodi:type="inkscape:persp3d"
   inkscape:vp_x="0 : 0.5 : 1"
   inkscape:vp_z="1 : 0.5 : 1"
   id="perspective3352">
		</inkscape:perspective>
	
		<inkscape:perspective
   inkscape:persp3d-origin="0.5 : 0.33333333 : 1"
   inkscape:vp_y="0 : 1000 : 0"
   sodipodi:type="inkscape:persp3d"
   inkscape:vp_x="0 : 0.5 : 1"
   inkscape:vp_z="1 : 0.5 : 1"
   id="perspective3480">
		</inkscape:perspective>
<inkscape:perspective
   id="perspective2982"
   inkscape:persp3d-origin="0.5 : 0.33333333 : 1"
   inkscape:vp_z="1 : 0.5 : 1"
   inkscape:vp_y="0 : 1000 : 0"
   inkscape:vp_x="0 : 0.5 : 1"
   sodipodi:type="inkscape:persp3d" /><inkscape:perspective
   id="perspective3122"
   inkscape:persp3d-origin="0.5 : 0.33333333 : 1"
   inkscape:vp_z="1 : 0.5 : 1"
   inkscape:vp_y="0 : 1000 : 0"
   inkscape:vp_x="0 : 0.5 : 1"
   sodipodi:type="inkscape:persp3d" /><inkscape:perspective
   id="perspective3144"
   inkscape:persp3d-origin="0.5 : 0.33333333 : 1"
   inkscape:vp_z="1 : 0.5 : 1"
   inkscape:vp_y="0 : 1000 : 0"
   inkscape:vp_x="0 : 0.5 : 1"
   sodipodi:type="inkscape:persp3d" /><inkscape:perspective
   id="perspective3509"
   inkscape:persp3d-origin="0.5 : 0.33333333 : 1"
   inkscape:vp_z="1 : 0.5 : 1"
   inkscape:vp_y="0 : 1000 : 0"
   inkscape:vp_x="0 : 0.5 : 1"
   sodipodi:type="inkscape:persp3d" /><inkscape:perspective
   id="perspective3509-0"
   inkscape:persp3d-origin="0.5 : 0.33333333 : 1"
   inkscape:vp_z="1 : 0.5 : 1"
   inkscape:vp_y="0 : 1000 : 0"
   inkscape:vp_x="0 : 0.5 : 1"
   sodipodi:type="inkscape:persp3d" /><inkscape:perspective
   id="perspective3509-4"
   inkscape:persp3d-origin="0.5 : 0.33333333 : 1"
   inkscape:vp_z="1 : 0.5 : 1"
   inkscape:vp_y="0 : 1000 : 0"
   inkscape:vp_x="0 : 0.5 : 1"
   sodipodi:type="inkscape:persp3d" /><inkscape:perspective
   id="perspective3509-8"
   inkscape:persp3d-origin="0.5 : 0.33333333 : 1"
   inkscape:vp_z="1 : 0.5 : 1"
   inkscape:vp_y="0 : 1000 : 0"
   inkscape:vp_x="0 : 0.5 : 1"
   sodipodi:type="inkscape:persp3d" /><inkscape:perspective
   id="perspective3509-45"
   inkscape:persp3d-origin="0.5 : 0.33333333 : 1"
   inkscape:vp_z="1 : 0.5 : 1"
   inkscape:vp_y="0 : 1000 : 0"
   inkscape:vp_x="0 : 0.5 : 1"
   sodipodi:type="inkscape:persp3d" /><inkscape:perspective
   id="perspective3509-1"
   inkscape:persp3d-origin="0.5 : 0.33333333 : 1"
   inkscape:vp_z="1 : 0.5 : 1"
   inkscape:vp_y="0 : 1000 : 0"
   inkscape:vp_x="0 : 0.5 : 1"
   sodipodi:type="inkscape:persp3d" /></defs>
<sodipodi:namedview
   pagecolor="#ffffff"
   inkscape:cy="158.10631"
   inkscape:zoom="0.98994949"
   borderopacity="1.0"
   showgrid="false"
   bordercolor="#666666"
   inkscape:document-units="px"
   inkscape:window-maximized="1"
   inkscape:cx="109.92849"
   id="base"
   inkscape:pageopacity="0.0"
   inkscape:pageshadow="2"
   inkscape:current-layer="svg2"
   inkscape:window-width="1395"
   inkscape:window-height="874"
   inkscape:window-x="41"
   inkscape:window-y="-4"
   objecttolerance="20"
   inkscape:object-nodes="true"
   showguides="true"
   inkscape:guide-bbox="true">
	</sodipodi:namedview>


<path
   id="path3499-7"
   d="m 85.612499,209.58196 0,62.39999 c 0,0 5.216069,6.14981 8.849999,0 0.0625,-7.93552 0,-67.57499 0,-67.57499 l -8.849999,5.175 z"
   style="stroke-width:5.4;fill-opacity:0;;overflow:visible" /><path
   id="path3499-2"
   d="m 113.81248,262.60696 0,62.39999 c 0,0 5.21607,6.14981 8.85,0 0.0625,-7.93552 0,-67.57499 0,-67.57499 l -8.85,5.175 z"
   style="stroke-width:5.4;fill-opacity:0;;overflow:visible" /><path
   id="path3499-5"
   d="m 53.8125,227.95696 0,62.39999 c 0,0 5.21607,6.14981 8.85,0 0.0625,-7.93552 0,-67.57499 0,-67.57499 l -8.85,5.175 z"
   style="stroke-width:5.4;fill-opacity:0;;overflow:visible" /><path
   style="stroke-width:5.4;fill-opacity:0;"
   d="M 14.737505,124.53196 191.36249,22.531969 285.33749,76.68196 108.08632,178.27407 14.737505,124.53196 z"
   id="path3497"
   sodipodi:nodetypes="ccccc" /><path
   style="stroke-width:5.4;fill-opacity:0;;stroke-width:5.4;stroke-miterlimit:16.50000000000000000;;stroke-dasharray:none"
   d="m 108.08632,178.27407 177.25117,-101.51711 0,104.1 -18.825,10.95 -16.575,-7.875 -107.4,62.02499 -15.075,26.1 -18.74999,10.875 -0.62618,-104.65788 z"
   id="path3495" /><path
   style="stroke-width:5.4;fill-opacity:0;;stroke-width:5.4;stroke-miterlimit:16.50000000000000000;;stroke-dasharray:none"
   d="m 14.647212,125.24106 94.065288,53.5159 0,104.17499 -18.824998,-10.875 -14.999999,-26.025 -26.325001,-15.225 -14.999995,8.7 -18.825001,-10.875 -0.09029,-103.39089 z"
   id="path3493" /><path
   id="path3499-4"
   d="m 209.21249,207.48196 0,62.39999 c 0,0 5.21607,6.14981 8.84999,0 0.0625,-7.93552 0,-67.57499 0,-67.57499 l -8.84999,5.175 z"
   style="stroke-width:5.4;fill-opacity:0;;overflow:visible" /><path
   id="path3499-9"
   d="m 177.41248,225.85695 0,62.39998 c 0,0 5.21607,6.14981 8.85,0 0.0625,-7.93552 0,-67.57498 0,-67.57498 l -8.85,5.175 z"
   style="stroke-width:5.4;fill-opacity:0;;overflow:visible" /><path
   id="path3499-8"
   d="m 145.61249,244.23195 0,62.39999 c 0,0 5.21607,6.14981 8.85,0 0.0625,-7.93552 0,-67.57499 0,-67.57499 l -8.85,5.175 z"
   style="stroke-width:5.4;fill-opacity:0;;overflow:visible" /><path
   id="path3499"
   d="m 241.08749,189.10696 0,62.39999 c 0,0 5.21607,6.14981 8.85,0 0.0625,-7.93552 0,-67.57499 0,-67.57499 l -8.85,5.175 z"
   style="stroke-width:5.4;fill-opacity:0;" /><g
   style="stroke-width:5.4;fill-opacity:0;;stroke-width:5.4;;overflow:visible"
   transform="matrix(0,1.25,1.25,0,952.32949,-543.18443)"
   id="g3452"><g
     style="stroke-width:5.4;fill-opacity:0;;stroke-width:5.4;"
     id="g4010"
     transform="translate(-59.885713,-470.17142)"><g
       style="stroke-width:5.4;fill-opacity:0;;stroke-width:5.4;"
       id="g4012"
       enable-background="new    "><g
         style="stroke-width:5.4;fill-opacity:0;;stroke-width:5.4;"
         id="g4014"
         transform="translate(162.43253,-38.789857)"><polygon
           style="stroke-width:5.4;fill-opacity:0;;stroke-width:5.4;"
           id="polygon4016"
           points="375.403,-112.552 380.982,-112.636 396.201,-144.749 395.832,-152.874 391.775,-152.447 375.236,-118.805 " /></g><g
         style="stroke-width:5.4;fill-opacity:0;;stroke-width:5.4;"
         id="g4018"
         transform="translate(162.43253,-38.789857)"><path
           style="stroke-width:5.4;fill-opacity:0;;stroke-width:5.4;"
           id="path4020"
           d="m 381.009,-112.443 15.293,-32.212 -0.366,-8.332 -4.199,0.354 -16.603,33.732 0.159,6.456 5.716,0.002 z m 15.192,-32.306 -15.219,32.113 -5.578,0.084 -0.167,-6.254 16.538,-33.642 4.058,-0.426 0.368,8.125" /></g><g
         style="stroke-width:5.4;fill-opacity:0;;stroke-width:5.4;"
         id="g4022"
         transform="translate(162.43253,-38.789857)"><path
           style="stroke-width:5.4;fill-opacity:0;;stroke-width:5.4;"
           id="path4024"
           d="m 397.249,-69.866 -0.086,-10.992 -16.143,-27.99 -5.485,0.427 0.118,6.487 18.505,32.091 3.091,-0.023 z m -0.197,-10.952 0.137,10.764 -2.966,0.048 -18.458,-31.97 -0.171,-6.256 5.369,-0.452 16.089,27.866" /></g><g
         style="stroke-width:5.4;fill-opacity:0;;stroke-width:5.4;"
         id="g4026"
         transform="translate(162.43253,-38.789857)"><polygon
           style="stroke-width:5.4;fill-opacity:0;;stroke-width:5.4;"
           id="polygon4028"
           points="394.223,-70.006 397.189,-70.053 397.052,-80.818 380.963,-108.684 375.594,-108.232 375.765,-101.976 " /></g><g
         style="stroke-width:5.4;fill-opacity:0;;stroke-width:5.4;"
         id="g4030"
         transform="translate(162.43253,-38.789857)"><polygon
           style="stroke-width:5.4;fill-opacity:0;;stroke-width:5.4;"
           id="polygon4032"
           points="398.36,-157.246 402.415,-157.681 418.066,-189.055 417.929,-199.822 414.528,-199.766 398.206,-165.753 " /></g><g
         style="stroke-width:5.4;fill-opacity:0;;stroke-width:5.4;"
         id="g4034"
         transform="translate(162.43253,-38.789857)"><path
           style="stroke-width:5.4;fill-opacity:0;;stroke-width:5.4;"
           id="path4036"
           d="m 402.448,-157.49 15.715,-31.471 -0.124,-10.957 -3.542,-0.035 -16.39,34.11 0.141,8.696 4.2,-0.343 z m 15.618,-31.565 -15.651,31.373 -4.055,0.436 -0.154,-8.507 16.322,-34.013 3.401,-0.055 0.137,10.766" /></g><g
         style="stroke-width:5.4;fill-opacity:0;;stroke-width:5.4;"
         id="g4038"
         transform="translate(162.43253,-38.789857)"><polygon
           style="stroke-width:5.4;fill-opacity:0;;stroke-width:5.4;"
           id="polygon4040"
           points="414.794,-116.547 418.858,-116.979 418.704,-125.487 402.823,-152.993 398.552,-152.922 398.706,-144.413 " /></g><g
         style="stroke-width:5.4;fill-opacity:0;;stroke-width:5.4;"
         id="g4042"
         transform="translate(162.43253,-38.789857)"><path
           style="stroke-width:5.4;fill-opacity:0;;stroke-width:5.4;"
           id="path4044"
           d="m 418.918,-116.796 -0.106,-8.737 -15.924,-27.622 -4.394,0.046 0.1,8.737 16.143,27.991 4.181,-0.415 z m -0.214,-8.691 0.154,8.508 -4.064,0.432 -16.088,-27.866 -0.154,-8.509 4.271,-0.071 15.881,27.506" /></g><g
         style="stroke-width:5.4;fill-opacity:0;;stroke-width:5.4;"
         id="g4046"
         transform="translate(162.43253,-38.789857)"><polygon
           style="stroke-width:5.4;fill-opacity:0;;stroke-width:5.4;"
           id="polygon4048"
           points="399.698,-70.469 403.1,-70.52 419.418,-104.526 419.05,-112.661 414.989,-112.229 399.553,-80.472 " /></g><g
         style="stroke-width:5.4;fill-opacity:0;;stroke-width:5.4;"
         id="g4050"
         transform="translate(162.43253,-38.789857)"><path
           style="stroke-width:5.4;fill-opacity:0;;stroke-width:5.4;"
           id="path4052"
           d="m 403.129,-70.332 16.391,-34.109 -0.362,-8.326 -4.2,0.353 -15.503,31.839 0.136,10.204 3.538,0.039 z m 16.289,-34.194 -16.318,34.006 -3.401,0.05 -0.145,-10.003 15.436,-31.756 4.061,-0.432 0.367,8.135" /></g><g
         style="stroke-width:5.4;fill-opacity:0;;stroke-width:5.4;"
         id="g4074"
         transform="translate(162.43253,-38.789857)"><polygon
           style="stroke-width:5.4;fill-opacity:0;;stroke-width:5.4;"
           id="polygon4076"
           points="436.664,-161.602 442.03,-162.059 441.86,-168.315 423.407,-200.277 420.219,-199.864 420.575,-189.47 " /></g><g
         style="stroke-width:5.4;fill-opacity:0;;stroke-width:5.4;"
         id="g4078"
         transform="translate(162.43253,-38.789857)"><path
           style="stroke-width:5.4;fill-opacity:0;;stroke-width:5.4;"
           id="path4080"
           d="m 442.092,-161.875 -0.121,-6.482 -18.502,-32.086 -3.315,0.398 0.31,10.617 16.139,27.985 5.489,-0.432 z m -0.232,-6.44 0.17,6.256 -5.366,0.457 -16.089,-27.868 -0.355,-10.393 3.187,-0.414 18.453,31.962" /></g><g
         style="stroke-width:5.4;fill-opacity:0;;stroke-width:5.4;"
         id="g4082"
         transform="translate(162.43253,-38.789857)"><path
           style="stroke-width:5.4;fill-opacity:0;;stroke-width:5.4;"
           id="path4084"
           d="m 425.666,-117.278 16.824,-34.113 -0.156,-6.451 -5.506,0.371 -15.503,31.839 0.145,8.702 4.196,-0.348 z m 16.725,-34.203 -16.754,34.012 -4.061,0.437 -0.154,-8.507 15.436,-31.745 5.365,-0.452 0.168,6.255" /></g><g
         style="stroke-width:5.4;fill-opacity:0;;stroke-width:5.4;"
         id="g4086"
         transform="translate(162.43253,-38.789857)"><polygon
           style="stroke-width:5.4;fill-opacity:0;;stroke-width:5.4;"
           id="polygon4088"
           points="421.577,-117.032 425.638,-117.469 442.391,-151.481 442.224,-157.735 436.859,-157.284 421.423,-125.539 " /></g><g
         style="stroke-width:5.4;fill-opacity:0;;stroke-width:5.4;"
         id="g4090"
         transform="translate(162.43253,-38.789857)"><path
           style="stroke-width:5.4;fill-opacity:0;;stroke-width:5.4;"
           id="path4092"
           d="m 448.576,-139.81 c 1.448,2.508 3.831,2.471 5.314,-0.082 1.48,-2.548 1.51,-6.661 0.062,-9.169 -1.445,-2.503 -3.828,-2.465 -5.308,0.082 -1.483,2.553 -1.513,6.667 -0.068,9.169 z" /></g><g
         style="stroke-width:5.4;fill-opacity:0;;stroke-width:5.4;"
         id="g4094"
         transform="translate(162.43253,-38.789857)"><path
           style="stroke-width:5.4;fill-opacity:0;;stroke-width:5.4;"
           id="path4096"
           d="m 448.443,-139.581 c 1.519,2.631 4.02,2.594 5.577,-0.086 1.554,-2.675 1.584,-6.991 0.065,-9.622 -1.516,-2.625 -4.016,-2.588 -5.57,0.086 -1.558,2.679 -1.587,6.997 -0.072,9.622 z m 5.509,-9.479 c 1.448,2.508 1.418,6.621 -0.062,9.169 -1.483,2.553 -3.866,2.59 -5.314,0.082 -1.445,-2.503 -1.415,-6.616 0.068,-9.169 1.481,-2.548 3.863,-2.585 5.308,-0.082" /></g></g></g></g><path
   id="path3066"
   style="stroke-width:5.4;;stroke-width:5.4;stroke-linecap:round;stroke-linejoin:round;stroke-miterlimit:10;;stroke-dasharray:none;overflow:visible"
   d="m 89.887499,272.05695 18.824991,10.875 m 18.75,-10.875 15.07499,-26.1 m 0,0.075 108.975,-62.99999 m 0,0.075 15,8.7 m -203.84998,98.54999 0,-51.45 m -8.85,-5.1 0,56.55 m 100.64998,16.275 0,-67.575 m -100.64998,51.3 c 0.29125,3.43125 8.61125,3.33125 8.85,0 m 82.94998,-46.125 0,62.4 m 0,0 c 0.26125,3.38375 8.5875,3.38375 8.85,0 m -68.849981,-42.075 0,7.425 m 100.649981,16.275 0,-67.57499 M 85.612499,271.98195 c 0.31625,2.82875 5.53625,3.0425 7.425,1.875 m 84.374991,-48 0,62.4 m 0,0 c 0.24,3.34125 8.57125,3.41375 8.85,0 m 31.8,-18.375 0,-67.57499 m -203.324985,-77.775 93.974995,54.225 m 157.79999,13.05 18.825,-10.95 M 191.36249,22.531968 14.662505,124.53196 m 94.049985,54.225 176.62499,-102.075002 m 0,0.075 -94.05,-54.29999 m 17.925,185.024992 0,62.39999 m -100.49999,13.05 18.74999,-10.95 m 81.75,-2.1 c 0.2575,3.3425 8.67125,3.405 8.85,0 m -203.324975,-41.25 18.825,10.875 M 285.33748,76.756958 l 0,104.175002 m -176.62499,-2.175 0,104.17499 m -93.974985,-158.39999 0,104.09999 m 107.924975,96.375 0,-50.25 m 127.275,-23.25 0,-67.57499 m -136.12498,95.99999 0,45.075 m 127.27499,-135.89999 0,62.39999 m -207.524985,-12 14.999995,-8.775 m 192.52498,20.775 c 0.3175,3.45375 8.5175,3.37375 8.85,0 m -136.12499,73.5 c 0.29125,3.43125 8.61124,3.33125 8.84999,0 m -74.09998,-94.2 26.325,15.225 m 0,0 14.999999,26.025" /></svg>