<?xml version="1.0" encoding="UTF-8" standalone="no"?>
<!-- Created with Inkscape (http://www.inkscape.org/) -->
<svg
   xmlns:dc="http://purl.org/dc/elements/1.1/"
   xmlns:cc="http://creativecommons.org/ns#"
   xmlns:rdf="http://www.w3.org/1999/02/22-rdf-syntax-ns#"
   xmlns:svg="http://www.w3.org/2000/svg"
   xmlns="http://www.w3.org/2000/svg"
   xmlns:sodipodi="http://sodipodi.sourceforge.net/DTD/sodipodi-0.dtd"
   xmlns:inkscape="http://www.inkscape.org/namespaces/inkscape"
   width="44"
   height="44"
   id="svg2"
   sodipodi:version="0.32"
   inkscape:version="0.46"
   inkscape:export-filename="e:\Eigene Bilder\Commons\WikiMeter\WikiFrequencyBabel-1-1.png"
   inkscape:export-xdpi="90"
   inkscape:export-ydpi="90"
   version="1.0"
   sodipodi:docname="WikiFrequencyBabel-4-1.svg"
   inkscape:output_extension="org.inkscape.output.svg.inkscape">
  <defs
     id="defs4">
    <inkscape:perspective
       sodipodi:type="inkscape:persp3d"
       inkscape:vp_x="0 : 526.18109 : 1"
       inkscape:vp_y="0 : 1000 : 0"
       inkscape:vp_z="744.09448 : 526.18109 : 1"
       inkscape:persp3d-origin="372.04724 : 350.78739 : 1"
       id="perspective10" />
    <inkscape:perspective
       id="perspective2533"
       inkscape:persp3d-origin="336.04724 : 223.66534 : 1"
       inkscape:vp_z="672.09448 : 335.49802 : 1"
       inkscape:vp_y="0 : 1000 : 0"
       inkscape:vp_x="0 : 335.49802 : 1"
       sodipodi:type="inkscape:persp3d" />
    <inkscape:perspective
       id="perspective2677"
       inkscape:persp3d-origin="336.04724 : 223.66534 : 1"
       inkscape:vp_z="672.09448 : 335.49802 : 1"
       inkscape:vp_y="0 : 1000 : 0"
       inkscape:vp_x="0 : 335.49802 : 1"
       sodipodi:type="inkscape:persp3d" />
    <clipPath
       id="clipPath2839"
       clipPathUnits="userSpaceOnUse">
      <path
         id="path2841"
         d="M 0,0 L 455.25,0 L 455.25,454.5 L 0,454.5 L 0,0 z" />
    </clipPath>
    <clipPath
       id="clipPath2753"
       clipPathUnits="userSpaceOnUse">
      <path
         id="path2755"
         d="M 0,0 L 455.25,0 L 455.25,454.5 L 0,454.5 L 0,0 z" />
    </clipPath>
    <clipPath
       id="clipPath2743"
       clipPathUnits="userSpaceOnUse">
      <path
         id="path2745"
         d="M 59.04,73.44 L 425.01,73.44 L 425.01,395.46 L 59.04,395.46 L 59.04,73.44 z" />
    </clipPath>
    <inkscape:perspective
       id="perspective2733"
       inkscape:persp3d-origin="372.04724 : 350.78739 : 1"
       inkscape:vp_z="744.09448 : 526.18109 : 1"
       inkscape:vp_y="0 : 1000 : 0"
       inkscape:vp_x="0 : 526.18109 : 1"
       sodipodi:type="inkscape:persp3d" />
  </defs>
  <sodipodi:namedview
     id="base"
     pagecolor="#ffffff"
     bordercolor="#666666"
     borderopacity="1.0"
     inkscape:pageopacity="0.0"
     inkscape:pageshadow="2"
     inkscape:zoom="5.4754665"
     inkscape:cx="7.0127141"
     inkscape:cy="40.876036"
     inkscape:document-units="px"
     inkscape:current-layer="layer1"
     showgrid="true"
     inkscape:window-width="1024"
     inkscape:window-height="749"
     inkscape:window-x="0"
     inkscape:window-y="0"
     inkscape:object-paths="true"
     inkscape:object-nodes="true"
     objecttolerance="18"
     gridtolerance="18"
     guidetolerance="20">
    <inkscape:grid
       type="xygrid"
       id="grid3284"
       visible="true"
       enabled="true"
       spacingx="5px"
       spacingy="5px"
       color="#0000ff"
       opacity="0.28627451"
       empcolor="#0000ff"
       empopacity="0.40784314"
       originx="1px"
       originy="-2px" />
  </sodipodi:namedview>
  <metadata
     id="metadata7">
    <rdf:RDF>
      <cc:Work
         rdf:about="">
        <dc:format>image/svg+xml</dc:format>
        <dc:type
           rdf:resource="http://purl.org/dc/dcmitype/StillImage" />
      </cc:Work>
    </rdf:RDF>
  </metadata>
  <g
     inkscape:label="Ebene 1"
     inkscape:groupmode="layer"
     id="layer1"
     transform="translate(132,132)">
    <rect
       style="opacity:1;fill:#000000;fill-opacity:1;fill-rule:nonzero;stroke:none;stroke-width:2.5;stroke-linecap:round;stroke-linejoin:round;stroke-miterlimit:4;stroke-dasharray:none;stroke-dashoffset:0;stroke-opacity:1"
       id="rect2512"
       width="44"
       height="44"
       x="-132"
       y="88"
       transform="scale(1,-1)" />
    <rect
       style="opacity:1;;fill-opacity:1;fill-rule:nonzero;stroke:none;stroke-width:5;stroke-linecap:round;stroke-linejoin:round;stroke-miterlimit:4;stroke-dasharray:none;stroke-dashoffset:0;stroke-opacity:1"
       id="rect3292"
       width="50"
       height="1"
       x="86"
       y="110"
       transform="scale(-1,-1)" />
    <rect
       style="opacity:1;fill-opacity:1;fill-rule:nonzero;stroke:none;stroke-width:5;stroke-linecap:round;stroke-linejoin:round;stroke-miterlimit:4;stroke-dasharray:none;stroke-dashoffset:0;stroke-opacity:1"
       id="rect3294"
       width="1"
       height="50"
       x="-111"
       y="86"
       transform="scale(1,-1)" />
    <rect
       transform="scale(1,-1)"
       inkscape:tile-y0="124"
       inkscape:tile-x0="124"
       y="115"
       x="-112"
       height="1"
       width="3"
       id="use3580"
       style=";fill-opacity:1;fill-rule:nonzero;stroke:none;stroke-width:5;stroke-linecap:round;stroke-linejoin:round;stroke-miterlimit:4;stroke-dasharray:none;stroke-dashoffset:0;stroke-opacity:1" />
    <rect
       transform="scale(1,-1)"
       inkscape:tile-y0="124"
       inkscape:tile-x0="124"
       y="120"
       x="-112"
       height="1"
       width="3"
       id="rect2571"
       style=";fill-opacity:1;fill-rule:nonzero;stroke:none;stroke-width:5;stroke-linecap:round;stroke-linejoin:round;stroke-miterlimit:4;stroke-dasharray:none;stroke-dashoffset:0;stroke-opacity:1" />
    <rect
       transform="scale(1,-1)"
       inkscape:tile-y0="124"
       inkscape:tile-x0="124"
       y="125"
       x="-112"
       height="1"
       width="3"
       id="rect2573"
       style=";fill-opacity:1;fill-rule:nonzero;stroke:none;stroke-width:5;stroke-linecap:round;stroke-linejoin:round;stroke-miterlimit:4;stroke-dasharray:none;stroke-dashoffset:0;stroke-opacity:1" />
    <rect
       transform="scale(1,-1)"
       inkscape:tile-y0="124"
       inkscape:tile-x0="124"
       y="105"
       x="-112"
       height="1"
       width="3"
       id="rect2575"
       style=";fill-opacity:1;fill-rule:nonzero;stroke:none;stroke-width:5;stroke-linecap:round;stroke-linejoin:round;stroke-miterlimit:4;stroke-dasharray:none;stroke-dashoffset:0;stroke-opacity:1" />
    <rect
       transform="scale(1,-1)"
       inkscape:tile-y0="124"
       inkscape:tile-x0="124"
       y="100"
       x="-112"
       height="1"
       width="3"
       id="rect2577"
       style=";fill-opacity:1;fill-rule:nonzero;stroke:none;stroke-width:5;stroke-linecap:round;stroke-linejoin:round;stroke-miterlimit:4;stroke-dasharray:none;stroke-dashoffset:0;stroke-opacity:1" />
    <rect
       transform="scale(1,-1)"
       inkscape:tile-y0="124"
       inkscape:tile-x0="124"
       y="95"
       x="-112"
       height="1"
       width="3"
       id="rect2579"
       style=";fill-opacity:1;fill-rule:nonzero;stroke:none;stroke-width:5;stroke-linecap:round;stroke-linejoin:round;stroke-miterlimit:4;stroke-dasharray:none;stroke-dashoffset:0;stroke-opacity:1" />
    <rect
       style=";fill-opacity:1;fill-rule:nonzero;stroke:none;stroke-width:5;stroke-linecap:round;stroke-linejoin:round;stroke-miterlimit:4;stroke-dasharray:none;stroke-dashoffset:0;stroke-opacity:1"
       id="use2763"
       width="1"
       height="1"
       x="-126"
       y="125"
       inkscape:tile-x0="1"
       inkscape:tile-y0="1"
       transform="scale(1,-1)" />
    <rect
       style=";fill-opacity:1;fill-rule:nonzero;stroke:none;stroke-width:5;stroke-linecap:round;stroke-linejoin:round;stroke-miterlimit:4;stroke-dasharray:none;stroke-dashoffset:0;stroke-opacity:1"
       id="use2765"
       width="1"
       height="1"
       x="-126"
       y="120"
       inkscape:tile-x0="1"
       inkscape:tile-y0="1"
       transform="scale(1,-1)" />
    <rect
       style=";fill-opacity:1;fill-rule:nonzero;stroke:none;stroke-width:5;stroke-linecap:round;stroke-linejoin:round;stroke-miterlimit:4;stroke-dasharray:none;stroke-dashoffset:0;stroke-opacity:1"
       id="use2767"
       width="1"
       height="1"
       x="-126"
       y="115"
       inkscape:tile-x0="1"
       inkscape:tile-y0="1"
       transform="scale(1,-1)" />
    <rect
       style=";fill-opacity:1;fill-rule:nonzero;stroke:none;stroke-width:5;stroke-linecap:round;stroke-linejoin:round;stroke-miterlimit:4;stroke-dasharray:none;stroke-dashoffset:0;stroke-opacity:1"
       id="use2771"
       width="1"
       height="1"
       x="-126"
       y="105"
       inkscape:tile-x0="1"
       inkscape:tile-y0="1"
       transform="scale(1,-1)" />
    <rect
       style=";fill-opacity:1;fill-rule:nonzero;stroke:none;stroke-width:5;stroke-linecap:round;stroke-linejoin:round;stroke-miterlimit:4;stroke-dasharray:none;stroke-dashoffset:0;stroke-opacity:1"
       id="use2773"
       width="1"
       height="1"
       x="-126"
       y="100"
       inkscape:tile-x0="1"
       inkscape:tile-y0="1"
       transform="scale(1,-1)" />
    <rect
       style=";fill-opacity:1;fill-rule:nonzero;stroke:none;stroke-width:5;stroke-linecap:round;stroke-linejoin:round;stroke-miterlimit:4;stroke-dasharray:none;stroke-dashoffset:0;stroke-opacity:1"
       id="use2775"
       width="1"
       height="1"
       x="-126"
       y="95"
       inkscape:tile-x0="1"
       inkscape:tile-y0="1"
       transform="scale(1,-1)" />
    <rect
       style=";fill-opacity:1;fill-rule:nonzero;stroke:none;stroke-width:5;stroke-linecap:round;stroke-linejoin:round;stroke-miterlimit:4;stroke-dasharray:none;stroke-dashoffset:0;stroke-opacity:1"
       id="use2781"
       width="1"
       height="1"
       x="-121"
       y="125"
       inkscape:tile-x0="1"
       inkscape:tile-y0="1"
       transform="scale(1,-1)" />
    <rect
       style=";fill-opacity:1;fill-rule:nonzero;stroke:none;stroke-width:5;stroke-linecap:round;stroke-linejoin:round;stroke-miterlimit:4;stroke-dasharray:none;stroke-dashoffset:0;stroke-opacity:1"
       id="use2783"
       width="1"
       height="1"
       x="-121"
       y="120"
       inkscape:tile-x0="1"
       inkscape:tile-y0="1"
       transform="scale(1,-1)" />
    <rect
       style=";fill-opacity:1;fill-rule:nonzero;stroke:none;stroke-width:5;stroke-linecap:round;stroke-linejoin:round;stroke-miterlimit:4;stroke-dasharray:none;stroke-dashoffset:0;stroke-opacity:1"
       id="use2785"
       width="1"
       height="1"
       x="-121"
       y="115"
       inkscape:tile-x0="1"
       inkscape:tile-y0="1"
       transform="scale(1,-1)" />
    <rect
       style=";fill-opacity:1;fill-rule:nonzero;stroke:none;stroke-width:5;stroke-linecap:round;stroke-linejoin:round;stroke-miterlimit:4;stroke-dasharray:none;stroke-dashoffset:0;stroke-opacity:1"
       id="use2789"
       width="1"
       height="1"
       x="-121"
       y="105"
       inkscape:tile-x0="1"
       inkscape:tile-y0="1"
       transform="scale(1,-1)" />
    <rect
       style=";fill-opacity:1;fill-rule:nonzero;stroke:none;stroke-width:5;stroke-linecap:round;stroke-linejoin:round;stroke-miterlimit:4;stroke-dasharray:none;stroke-dashoffset:0;stroke-opacity:1"
       id="use2791"
       width="1"
       height="1"
       x="-121"
       y="100"
       inkscape:tile-x0="1"
       inkscape:tile-y0="1"
       transform="scale(1,-1)" />
    <rect
       style=";fill-opacity:1;fill-rule:nonzero;stroke:none;stroke-width:5;stroke-linecap:round;stroke-linejoin:round;stroke-miterlimit:4;stroke-dasharray:none;stroke-dashoffset:0;stroke-opacity:1"
       id="use2793"
       width="1"
       height="1"
       x="-121"
       y="95"
       inkscape:tile-x0="1"
       inkscape:tile-y0="1"
       transform="scale(1,-1)" />
    <rect
       style=";fill-opacity:1;fill-rule:nonzero;stroke:none;stroke-width:5;stroke-linecap:round;stroke-linejoin:round;stroke-miterlimit:4;stroke-dasharray:none;stroke-dashoffset:0;stroke-opacity:1"
       id="use2799"
       width="1"
       height="1"
       x="-116"
       y="125"
       inkscape:tile-x0="1"
       inkscape:tile-y0="1"
       transform="scale(1,-1)" />
    <rect
       style=";fill-opacity:1;fill-rule:nonzero;stroke:none;stroke-width:5;stroke-linecap:round;stroke-linejoin:round;stroke-miterlimit:4;stroke-dasharray:none;stroke-dashoffset:0;stroke-opacity:1"
       id="use2801"
       width="1"
       height="1"
       x="-116"
       y="120"
       inkscape:tile-x0="1"
       inkscape:tile-y0="1"
       transform="scale(1,-1)" />
    <rect
       style=";fill-opacity:1;fill-rule:nonzero;stroke:none;stroke-width:5;stroke-linecap:round;stroke-linejoin:round;stroke-miterlimit:4;stroke-dasharray:none;stroke-dashoffset:0;stroke-opacity:1"
       id="use2803"
       width="1"
       height="1"
       x="-116"
       y="115"
       inkscape:tile-x0="1"
       inkscape:tile-y0="1"
       transform="scale(1,-1)" />
    <rect
       style=";fill-opacity:1;fill-rule:nonzero;stroke:none;stroke-width:5;stroke-linecap:round;stroke-linejoin:round;stroke-miterlimit:4;stroke-dasharray:none;stroke-dashoffset:0;stroke-opacity:1"
       id="use2807"
       width="1"
       height="1"
       x="-116"
       y="105"
       inkscape:tile-x0="1"
       inkscape:tile-y0="1"
       transform="scale(1,-1)" />
    <rect
       style=";fill-opacity:1;fill-rule:nonzero;stroke:none;stroke-width:5;stroke-linecap:round;stroke-linejoin:round;stroke-miterlimit:4;stroke-dasharray:none;stroke-dashoffset:0;stroke-opacity:1"
       id="use2809"
       width="1"
       height="1"
       x="-116"
       y="100"
       inkscape:tile-x0="1"
       inkscape:tile-y0="1"
       transform="scale(1,-1)" />
    <rect
       style=";fill-opacity:1;fill-rule:nonzero;stroke:none;stroke-width:5;stroke-linecap:round;stroke-linejoin:round;stroke-miterlimit:4;stroke-dasharray:none;stroke-dashoffset:0;stroke-opacity:1"
       id="use2811"
       width="1"
       height="1"
       x="-116"
       y="95"
       inkscape:tile-x0="1"
       inkscape:tile-y0="1"
       transform="scale(1,-1)" />
    <rect
       style=";fill-opacity:1;fill-rule:nonzero;stroke:none;stroke-width:5;stroke-linecap:round;stroke-linejoin:round;stroke-miterlimit:4;stroke-dasharray:none;stroke-dashoffset:0;stroke-opacity:1"
       id="use2835"
       width="1"
       height="1"
       x="-106"
       y="125"
       inkscape:tile-x0="1"
       inkscape:tile-y0="1"
       transform="scale(1,-1)" />
    <rect
       style=";fill-opacity:1;fill-rule:nonzero;stroke:none;stroke-width:5;stroke-linecap:round;stroke-linejoin:round;stroke-miterlimit:4;stroke-dasharray:none;stroke-dashoffset:0;stroke-opacity:1"
       id="use2837"
       width="1"
       height="1"
       x="-106"
       y="120"
       inkscape:tile-x0="1"
       inkscape:tile-y0="1"
       transform="scale(1,-1)" />
    <rect
       style=";fill-opacity:1;fill-rule:nonzero;stroke:none;stroke-width:5;stroke-linecap:round;stroke-linejoin:round;stroke-miterlimit:4;stroke-dasharray:none;stroke-dashoffset:0;stroke-opacity:1"
       id="use2839"
       width="1"
       height="1"
       x="-106"
       y="115"
       inkscape:tile-x0="1"
       inkscape:tile-y0="1"
       transform="scale(1,-1)" />
    <rect
       style=";fill-opacity:1;fill-rule:nonzero;stroke:none;stroke-width:5;stroke-linecap:round;stroke-linejoin:round;stroke-miterlimit:4;stroke-dasharray:none;stroke-dashoffset:0;stroke-opacity:1"
       id="use2843"
       width="1"
       height="1"
       x="-106"
       y="105"
       inkscape:tile-x0="1"
       inkscape:tile-y0="1"
       transform="scale(1,-1)" />
    <rect
       style=";fill-opacity:1;fill-rule:nonzero;stroke:none;stroke-width:5;stroke-linecap:round;stroke-linejoin:round;stroke-miterlimit:4;stroke-dasharray:none;stroke-dashoffset:0;stroke-opacity:1"
       id="use2845"
       width="1"
       height="1"
       x="-106"
       y="100"
       inkscape:tile-x0="1"
       inkscape:tile-y0="1"
       transform="scale(1,-1)" />
    <rect
       style=";fill-opacity:1;fill-rule:nonzero;stroke:none;stroke-width:5;stroke-linecap:round;stroke-linejoin:round;stroke-miterlimit:4;stroke-dasharray:none;stroke-dashoffset:0;stroke-opacity:1"
       id="use2847"
       width="1"
       height="1"
       x="-106"
       y="95"
       inkscape:tile-x0="1"
       inkscape:tile-y0="1"
       transform="scale(1,-1)" />
    <rect
       style=";fill-opacity:1;fill-rule:nonzero;stroke:none;stroke-width:5;stroke-linecap:round;stroke-linejoin:round;stroke-miterlimit:4;stroke-dasharray:none;stroke-dashoffset:0;stroke-opacity:1"
       id="use2853"
       width="1"
       height="1"
       x="-101"
       y="125"
       inkscape:tile-x0="1"
       inkscape:tile-y0="1"
       transform="scale(1,-1)" />
    <rect
       style=";fill-opacity:1;fill-rule:nonzero;stroke:none;stroke-width:5;stroke-linecap:round;stroke-linejoin:round;stroke-miterlimit:4;stroke-dasharray:none;stroke-dashoffset:0;stroke-opacity:1"
       id="use2855"
       width="1"
       height="1"
       x="-101"
       y="120"
       inkscape:tile-x0="1"
       inkscape:tile-y0="1"
       transform="scale(1,-1)" />
    <rect
       style=";fill-opacity:1;fill-rule:nonzero;stroke:none;stroke-width:5;stroke-linecap:round;stroke-linejoin:round;stroke-miterlimit:4;stroke-dasharray:none;stroke-dashoffset:0;stroke-opacity:1"
       id="use2857"
       width="1"
       height="1"
       x="-101"
       y="115"
       inkscape:tile-x0="1"
       inkscape:tile-y0="1"
       transform="scale(1,-1)" />
    <rect
       style=";fill-opacity:1;fill-rule:nonzero;stroke:none;stroke-width:5;stroke-linecap:round;stroke-linejoin:round;stroke-miterlimit:4;stroke-dasharray:none;stroke-dashoffset:0;stroke-opacity:1"
       id="use2861"
       width="1"
       height="1"
       x="-101"
       y="105"
       inkscape:tile-x0="1"
       inkscape:tile-y0="1"
       transform="scale(1,-1)" />
    <rect
       style=";fill-opacity:1;fill-rule:nonzero;stroke:none;stroke-width:5;stroke-linecap:round;stroke-linejoin:round;stroke-miterlimit:4;stroke-dasharray:none;stroke-dashoffset:0;stroke-opacity:1"
       id="use2863"
       width="1"
       height="1"
       x="-101"
       y="100"
       inkscape:tile-x0="1"
       inkscape:tile-y0="1"
       transform="scale(1,-1)" />
    <rect
       style=";fill-opacity:1;fill-rule:nonzero;stroke:none;stroke-width:5;stroke-linecap:round;stroke-linejoin:round;stroke-miterlimit:4;stroke-dasharray:none;stroke-dashoffset:0;stroke-opacity:1"
       id="use2865"
       width="1"
       height="1"
       x="-101"
       y="95"
       inkscape:tile-x0="1"
       inkscape:tile-y0="1"
       transform="scale(1,-1)" />
    <rect
       style=";fill-opacity:1;fill-rule:nonzero;stroke:none;stroke-width:5;stroke-linecap:round;stroke-linejoin:round;stroke-miterlimit:4;stroke-dasharray:none;stroke-dashoffset:0;stroke-opacity:1"
       id="use2871"
       width="1"
       height="1"
       x="-96"
       y="125"
       inkscape:tile-x0="1"
       inkscape:tile-y0="1"
       transform="scale(1,-1)" />
    <rect
       style=";fill-opacity:1;fill-rule:nonzero;stroke:none;stroke-width:5;stroke-linecap:round;stroke-linejoin:round;stroke-miterlimit:4;stroke-dasharray:none;stroke-dashoffset:0;stroke-opacity:1"
       id="use2873"
       width="1"
       height="1"
       x="-96"
       y="120"
       inkscape:tile-x0="1"
       inkscape:tile-y0="1"
       transform="scale(1,-1)" />
    <rect
       style=";fill-opacity:1;fill-rule:nonzero;stroke:none;stroke-width:5;stroke-linecap:round;stroke-linejoin:round;stroke-miterlimit:4;stroke-dasharray:none;stroke-dashoffset:0;stroke-opacity:1"
       id="use2875"
       width="1"
       height="1"
       x="-96"
       y="115"
       inkscape:tile-x0="1"
       inkscape:tile-y0="1"
       transform="scale(1,-1)" />
    <rect
       style=";fill-opacity:1;fill-rule:nonzero;stroke:none;stroke-width:5;stroke-linecap:round;stroke-linejoin:round;stroke-miterlimit:4;stroke-dasharray:none;stroke-dashoffset:0;stroke-opacity:1"
       id="use2879"
       width="1"
       height="1"
       x="-96"
       y="105"
       inkscape:tile-x0="1"
       inkscape:tile-y0="1"
       transform="scale(1,-1)" />
    <rect
       style=";fill-opacity:1;fill-rule:nonzero;stroke:none;stroke-width:5;stroke-linecap:round;stroke-linejoin:round;stroke-miterlimit:4;stroke-dasharray:none;stroke-dashoffset:0;stroke-opacity:1"
       id="use2881"
       width="1"
       height="1"
       x="-96"
       y="100"
       inkscape:tile-x0="1"
       inkscape:tile-y0="1"
       transform="scale(1,-1)" />
    <rect
       style=";fill-opacity:1;fill-rule:nonzero;stroke:none;stroke-width:5;stroke-linecap:round;stroke-linejoin:round;stroke-miterlimit:4;stroke-dasharray:none;stroke-dashoffset:0;stroke-opacity:1"
       id="use2883"
       width="1"
       height="1"
       x="-96"
       y="95"
       inkscape:tile-x0="1"
       inkscape:tile-y0="1"
       transform="scale(1,-1)" />
    <rect
       style=";fill-opacity:1;fill-rule:nonzero;stroke:none;stroke-width:5;stroke-linecap:round;stroke-linejoin:round;stroke-miterlimit:4;stroke-dasharray:none;stroke-dashoffset:0;stroke-opacity:1"
       id="rect3049"
       width="1"
       height="3"
       x="-126"
       y="109"
       inkscape:tile-x0="1"
       inkscape:tile-y0="1"
       transform="scale(1,-1)" />
    <rect
       style=";fill-opacity:1;fill-rule:nonzero;stroke:none;stroke-width:5;stroke-linecap:round;stroke-linejoin:round;stroke-miterlimit:4;stroke-dasharray:none;stroke-dashoffset:0;stroke-opacity:1"
       id="rect3051"
       width="1"
       height="3"
       x="-121"
       y="109"
       inkscape:tile-x0="1"
       inkscape:tile-y0="1"
       transform="scale(1,-1)" />
    <rect
       style=";fill-opacity:1;fill-rule:nonzero;stroke:none;stroke-width:5;stroke-linecap:round;stroke-linejoin:round;stroke-miterlimit:4;stroke-dasharray:none;stroke-dashoffset:0;stroke-opacity:1"
       id="rect3053"
       width="1"
       height="3"
       x="-116"
       y="109"
       inkscape:tile-x0="1"
       inkscape:tile-y0="1"
       transform="scale(1,-1)" />
    <rect
       style=";fill-opacity:1;fill-rule:nonzero;stroke:none;stroke-width:5;stroke-linecap:round;stroke-linejoin:round;stroke-miterlimit:4;stroke-dasharray:none;stroke-dashoffset:0;stroke-opacity:1"
       id="rect3055"
       width="1"
       height="3"
       x="-106"
       y="109"
       inkscape:tile-x0="1"
       inkscape:tile-y0="1"
       transform="scale(1,-1)" />
    <rect
       style=";fill-opacity:1;fill-rule:nonzero;stroke:none;stroke-width:5;stroke-linecap:round;stroke-linejoin:round;stroke-miterlimit:4;stroke-dasharray:none;stroke-dashoffset:0;stroke-opacity:1"
       id="rect3057"
       width="1"
       height="3"
       x="-101"
       y="109"
       inkscape:tile-x0="1"
       inkscape:tile-y0="1"
       transform="scale(1,-1)" />
    <rect
       style=";fill-opacity:1;fill-rule:nonzero;stroke:none;stroke-width:5;stroke-linecap:round;stroke-linejoin:round;stroke-miterlimit:4;stroke-dasharray:none;stroke-dashoffset:0;stroke-opacity:1"
       id="rect3059"
       width="1"
       height="3"
       x="-96"
       y="109"
       inkscape:tile-x0="1"
       inkscape:tile-y0="1"
       transform="scale(1,-1)" />
    <rect
       style="opacity:1;;fill-opacity:1;fill-rule:nonzero;stroke:none;stroke-width:5;stroke-linecap:round;stroke-linejoin:round;stroke-miterlimit:4;stroke-dasharray:none;stroke-dashoffset:0;stroke-opacity:1"
       id="rect3831"
       width="40"
       height="1"
       x="91"
       y="130"
       transform="scale(-1,-1)" />
    <rect
       style="opacity:1;;fill-opacity:1;fill-rule:nonzero;stroke:none;stroke-width:5;stroke-linecap:round;stroke-linejoin:round;stroke-miterlimit:4;stroke-dasharray:none;stroke-dashoffset:0;stroke-opacity:1"
       id="rect3833"
       width="40"
       height="1"
       x="91"
       y="90"
       transform="scale(-1,-1)" />
    <rect
       style="opacity:1;;fill-opacity:1;fill-rule:nonzero;stroke:none;stroke-width:5;stroke-linecap:round;stroke-linejoin:round;stroke-miterlimit:4;stroke-dasharray:none;stroke-dashoffset:0;stroke-opacity:1"
       id="rect3835"
       width="1"
       height="41"
       x="90"
       y="90"
       transform="scale(-1,-1)" />
    <rect
       style="opacity:1;;fill-opacity:1;fill-rule:nonzero;stroke:none;stroke-width:5;stroke-linecap:round;stroke-linejoin:round;stroke-miterlimit:4;stroke-dasharray:none;stroke-dashoffset:0;stroke-opacity:1"
       id="rect3837"
       width="1"
       height="41"
       x="130"
       y="90"
       transform="scale(-1,-1)" />
    <path
       style=";fill-opacity:1;fill-rule:evenodd;stroke:none;stroke-width:0.99999994;stroke-linecap:butt;stroke-linejoin:miter;stroke-miterlimit:4;stroke-dasharray:none;stroke-opacity:1"
       d="M -137.3125,-116 C -137.95047,-116 -138.42152,-115.58978 -138.875,-115.09375 C -139.32848,-114.59772 -139.74774,-113.94896 -140.125,-113.3125 C -140.87578,-112.04597 -141.40625,-110.8125 -141.40625,-110.8125 L -140.5,-110.4375 C -140.5,-110.4375 -139.99299,-111.61181 -139.28125,-112.8125 C -138.92729,-113.40965 -138.50378,-113.99193 -138.125,-114.40625 C -137.74622,-114.82057 -137.38809,-115 -137.3125,-115 C -137.04356,-115 -136.85824,-114.9107 -136.625,-114.71875 C -136.39176,-114.5268 -136.13316,-114.23262 -135.875,-113.8125 C -135.36196,-112.97769 -134.81782,-111.7313 -134.125,-110.375 C -133.39916,-108.95419 -132.87741,-107.72157 -132.28125,-106.75 C -131.98147,-106.26144 -131.64989,-105.8153 -131.25,-105.5 C -130.85011,-105.1847 -130.38294,-105 -129.84375,-105 C -129.30702,-105 -128.81009,-105.2116 -128.40625,-105.53125 C -128.00241,-105.8509 -127.65325,-106.28544 -127.34375,-106.78125 C -126.72747,-107.76849 -126.20179,-109.01324 -125.53125,-110.375 C -124.8512,-111.7561 -124.24901,-112.97657 -123.6875,-113.8125 C -123.40674,-114.23046 -123.1382,-114.5536 -122.90625,-114.75 C -122.6743,-114.9464 -122.47968,-115 -122.34375,-115 C -122.2024,-115 -122.03779,-114.94053 -121.8125,-114.75 C -121.58721,-114.55947 -121.33964,-114.25817 -121.0625,-113.84375 C -120.50822,-113.01491 -119.88207,-111.79145 -119.15625,-110.375 C -118.44849,-108.99371 -117.91515,-107.73331 -117.3125,-106.75 C -117.00958,-106.25574 -116.68459,-105.81389 -116.28125,-105.5 C -115.87791,-105.18611 -115.38065,-105 -114.84375,-105 C -114.14921,-105 -113.605,-105.46455 -113.125,-106 C -112.645,-106.53545 -112.22102,-107.19609 -111.84375,-107.84375 C -111.08532,-109.14577 -110.5625,-110.4375 -110.5625,-110.4375 L -111.46875,-110.8125 C -111.46875,-110.8125 -112.00139,-109.57527 -112.71875,-108.34375 C -113.07939,-107.72462 -113.47633,-107.10098 -113.875,-106.65625 C -114.27367,-106.21152 -114.64358,-106 -114.84375,-106 C -115.15619,-106 -115.42525,-106.07716 -115.6875,-106.28125 C -115.94975,-106.48534 -116.20288,-106.81619 -116.46875,-107.25 C -117.00368,-108.12283 -117.52143,-109.39059 -118.25,-110.8125 C -118.97433,-112.22605 -119.60566,-113.45821 -120.21875,-114.375 C -120.5253,-114.83339 -120.84791,-115.2128 -121.1875,-115.5 C -121.52709,-115.7872 -121.90443,-116 -122.34375,-116 C -122.78734,-116 -123.18732,-115.79122 -123.53125,-115.5 C -123.87518,-115.20878 -124.18916,-114.83776 -124.5,-114.375 C -125.12169,-113.44949 -125.75522,-112.19814 -126.4375,-110.8125 C -127.12134,-109.42372 -127.6371,-108.16297 -128.1875,-107.28125 C -128.46134,-106.84258 -128.76296,-106.52486 -129.03125,-106.3125 C -129.29954,-106.10014 -129.54516,-106 -129.84375,-106 C -130.15575,-106 -130.39658,-106.10776 -130.65625,-106.3125 C -130.91592,-106.51724 -131.17287,-106.81872 -131.4375,-107.25 C -131.97018,-108.11813 -132.50685,-109.35779 -133.25,-110.8125 C -133.92414,-112.13224 -134.45186,-113.36973 -135.03125,-114.3125 C -135.31926,-114.78118 -135.59863,-115.1954 -135.96875,-115.5 C -136.33887,-115.8046 -136.8073,-116 -137.3125,-116 z"
       id="path3309" />
    <path
       style=";fill-opacity:1;fill-rule:evenodd;stroke:none;stroke-width:0.99999994;stroke-linecap:butt;stroke-linejoin:miter;stroke-miterlimit:4;stroke-dasharray:none;stroke-opacity:1"
       d="M -107.375,-116 C -108.01297,-116 -108.48401,-115.58978 -108.9375,-115.09375 C -109.39099,-114.59772 -109.81023,-113.94896 -110.1875,-113.3125 C -110.93825,-112.04597 -111.46875,-110.8125 -111.46875,-110.8125 L -110.5625,-110.4375 C -110.5625,-110.4375 -110.05548,-111.61181 -109.34375,-112.8125 C -108.98978,-113.40965 -108.56629,-113.99193 -108.1875,-114.40625 C -107.80871,-114.82057 -107.4506,-115 -107.375,-115 C -107.10606,-115 -106.92074,-114.9107 -106.6875,-114.71875 C -106.45426,-114.5268 -106.19567,-114.23262 -105.9375,-113.8125 C -105.42447,-112.97768 -104.88032,-111.7313 -104.1875,-110.375 C -103.46168,-108.95418 -102.93989,-107.72157 -102.34375,-106.75 C -102.04396,-106.26144 -101.74364,-105.8153 -101.34375,-105.5 C -100.94386,-105.1847 -100.44544,-105 -99.90625,-105 C -99.369524,-105 -98.872589,-105.2116 -98.46875,-105.53125 C -98.064911,-105.8509 -97.747008,-106.28544 -97.4375,-106.78125 C -96.821254,-107.76849 -96.264291,-109.01323 -95.59375,-110.375 C -94.913706,-111.7561 -94.311513,-112.97657 -93.75,-113.8125 C -93.469243,-114.23046 -93.2007,-114.5536 -92.96875,-114.75 C -92.7368,-114.9464 -92.542195,-115 -92.40625,-115 C -92.264909,-115 -92.100288,-114.94053 -91.875,-114.75 C -91.649712,-114.55947 -91.402138,-114.25817 -91.125,-113.84375 C -90.570724,-113.01491 -89.944554,-111.79145 -89.21875,-110.375 C -88.510966,-108.99371 -88.008894,-107.73331 -87.40625,-106.75 C -87.103328,-106.25573 -86.747093,-105.81389 -86.34375,-105.5 C -85.940407,-105.18611 -85.474401,-105 -84.9375,-105 C -84.242959,-105 -83.698752,-105.46455 -83.21875,-106 C -82.738748,-106.53545 -82.283512,-107.19609 -81.90625,-107.84375 C -81.14782,-109.14577 -80.625,-110.4375 -80.625,-110.4375 L -81.53125,-110.8125 C -81.53125,-110.8125 -82.063886,-109.57527 -82.78125,-108.34375 C -83.14189,-107.72462 -83.538828,-107.10098 -83.9375,-106.65625 C -84.336172,-106.21152 -84.73734,-106 -84.9375,-106 C -85.249942,-106 -85.487751,-106.07716 -85.75,-106.28125 C -86.012249,-106.48534 -86.265383,-106.8162 -86.53125,-107.25 C -87.066182,-108.12283 -87.615152,-109.39059 -88.34375,-110.8125 C -89.068071,-112.22605 -89.668159,-113.45821 -90.28125,-114.375 C -90.587795,-114.83339 -90.910412,-115.2128 -91.25,-115.5 C -91.589588,-115.7872 -91.966935,-116 -92.40625,-116 C -92.849841,-116 -93.249818,-115.79122 -93.59375,-115.5 C -93.937682,-115.20878 -94.251654,-114.83776 -94.5625,-114.375 C -95.184191,-113.44949 -95.817719,-112.19814 -96.5,-110.8125 C -97.183839,-109.42373 -97.730865,-108.16297 -98.28125,-107.28125 C -98.555093,-106.84258 -98.825459,-106.52486 -99.09375,-106.3125 C -99.362041,-106.10014 -99.607667,-106 -99.90625,-106 C -100.21824,-106 -100.45908,-106.10776 -100.71875,-106.3125 C -100.97842,-106.51724 -101.23536,-106.81872 -101.5,-107.25 C -102.03268,-108.11813 -102.56937,-109.3578 -103.3125,-110.8125 C -103.98664,-112.13224 -104.51438,-113.36974 -105.09375,-114.3125 C -105.38177,-114.78118 -105.66113,-115.1954 -106.03125,-115.5 C -106.40137,-115.8046 -106.8698,-116 -107.375,-116 z"
       id="path3601" />
  </g>
</svg>
