<?xml version="1.0" encoding="UTF-8" standalone="no"?>
<svg
   xmlns:dc="http://purl.org/dc/elements/1.1/"
   xmlns:cc="http://creativecommons.org/ns#"
   xmlns:rdf="http://www.w3.org/1999/02/22-rdf-syntax-ns#"
   xmlns:svg="http://www.w3.org/2000/svg"
   xmlns="http://www.w3.org/2000/svg"
   xmlns:sodipodi="http://sodipodi.sourceforge.net/DTD/sodipodi-0.dtd"
   xmlns:inkscape="http://www.inkscape.org/namespaces/inkscape"
   version="1.0"
   width="153"
   height="116"
   id="svg12561"
   sodipodi:docname="Switch_circuit_or.svg"
   inkscape:version="1.0.2 (e86c870879, 2021-01-15)">
  <metadata
     id="metadata33">
    <rdf:RDF>
      <cc:Work
         rdf:about="">
        <dc:format>image/svg+xml</dc:format>
        <dc:type
           rdf:resource="http://purl.org/dc/dcmitype/StillImage" />
      </cc:Work>
    </rdf:RDF>
  </metadata>
  <sodipodi:namedview
     pagecolor="#ffffff"
     bordercolor="#666666"
     borderopacity="1"
     objecttolerance="10"
     gridtolerance="10"
     guidetolerance="10"
     inkscape:pageopacity="0"
     inkscape:pageshadow="2"
     inkscape:window-width="2786"
     inkscape:window-height="1102"
     id="namedview31"
     showgrid="false"
     inkscape:zoom="4.1370456"
     inkscape:cx="76.5"
     inkscape:cy="58"
     inkscape:window-x="0"
     inkscape:window-y="25"
     inkscape:window-maximized="0"
     inkscape:current-layer="layer1" />
  <defs
     id="defs12563">
    <marker
       refX="0"
       refY="0"
       orient="auto"
       style="overflow:visible"
       id="Dot_s">
      <path
         d="M -2.5,-1 C -2.5,1.76 -4.74,4 -7.5,4 C -10.26,4 -12.5,1.76 -12.5,-1 C -12.5,-3.76 -10.26,-6 -7.5,-6 C -4.74,-6 -2.5,-3.76 -2.5,-1 z "
         transform="matrix(0.2,0,0,0.2,1.48,0.2)"
         style="fill-rule:evenodd;;stroke-width:1pt;marker-start:none;marker-end:none"
         id="path3959" />
    </marker>
  </defs>
  <g
     transform="translate(-392.07141,-600.07642)"
     id="layer1">
    <g
       style=""
       id="g12585">
      <path
         d="M 414.10266,623.10767 L 414.10266,624.60767 L 414.10266,651.13892 L 395.97766,651.13892 L 395.97766,654.13892 L 415.60266,654.13892 L 417.10266,654.13892 L 417.10266,652.63892 L 417.10266,626.10767 L 443.91516,626.10767 L 443.91516,623.10767 L 415.60266,623.10767 L 414.10266,623.10767 z "
         style=";fill-opacity:1;fill-rule:evenodd;stroke:none;stroke-width:7.4;stroke-linecap:butt;stroke-linejoin:miter;stroke-miterlimit:4;stroke-dasharray:none;stroke-opacity:1"
         id="path12579" />
      <path
         d="M 446.8412,624.61209 C 446.8412,626.26809 445.4972,627.61209 443.8412,627.61209 C 442.1852,627.61209 440.8412,626.26809 440.8412,624.61209 C 440.8412,622.95609 442.1852,621.61209 443.8412,621.61209 C 445.4972,621.61209 446.8412,622.95609 446.8412,624.61209 z "
         style=";fill-rule:evenodd;;stroke-width:0.6pt;marker-start:none;marker-end:none"
         id="path12591" />
    </g>
    <g
       style=""
       id="g12593">
      <path
         d="M 414.09375,652.65625 L 414.09375,684.59375 L 414.09375,686.09375 L 415.59375,686.09375 L 443.90625,686.09375 L 443.90625,683.09375 L 417.09375,683.09375 L 417.09375,652.65625 L 414.09375,652.65625 z "
         style=";fill-opacity:1;fill-rule:evenodd;stroke:none;stroke-width:7.4;stroke-linecap:butt;stroke-linejoin:miter;stroke-miterlimit:4;stroke-dasharray:none;stroke-opacity:1"
         id="path12583" />
      <path
         d="M 446.8412,684.58439 C 446.8412,686.24039 445.4972,687.58439 443.8412,687.58439 C 442.1852,687.58439 440.8412,686.24039 440.8412,684.58439 C 440.8412,682.92839 442.1852,681.58439 443.8412,681.58439 C 445.4972,681.58439 446.8412,682.92839 446.8412,684.58439 z "
         style=";fill-rule:evenodd;;stroke-width:0.6pt;marker-start:none;marker-end:none"
         id="path12599" />
    </g>
    <g
       transform="matrix(-1,0,0,1,908.23516,0)"
       style=""
       id="g12601">
      <path
         d="M 414.10266,623.10767 L 414.10266,624.60767 L 414.10266,651.13892 L 395.97766,651.13892 L 395.97766,654.13892 L 415.60266,654.13892 L 417.10266,654.13892 L 417.10266,652.63892 L 417.10266,626.10767 L 443.91516,626.10767 L 443.91516,623.10767 L 415.60266,623.10767 L 414.10266,623.10767 z "
         style=";fill-opacity:1;fill-rule:evenodd;stroke:none;stroke-width:7.4;stroke-linecap:butt;stroke-linejoin:miter;stroke-miterlimit:4;stroke-dasharray:none;stroke-opacity:1"
         id="path12603" />
      <path
         d="M 446.8412,624.61209 C 446.8412,626.26809 445.4972,627.61209 443.8412,627.61209 C 442.1852,627.61209 440.8412,626.26809 440.8412,624.61209 C 440.8412,622.95609 442.1852,621.61209 443.8412,621.61209 C 445.4972,621.61209 446.8412,622.95609 446.8412,624.61209 z "
         style=";fill-rule:evenodd;;stroke-width:0.6pt;marker-start:none;marker-end:none"
         id="path12605" />
    </g>
    <g
       transform="matrix(-1,0,0,1,908.23516,0)"
       style=""
       id="g12607">
      <path
         d="M 414.09375,652.65625 L 414.09375,684.59375 L 414.09375,686.09375 L 415.59375,686.09375 L 443.90625,686.09375 L 443.90625,683.09375 L 417.09375,683.09375 L 417.09375,652.65625 L 414.09375,652.65625 z "
         style=";fill-opacity:1;fill-rule:evenodd;stroke:none;stroke-width:7.4;stroke-linecap:butt;stroke-linejoin:miter;stroke-miterlimit:4;stroke-dasharray:none;stroke-opacity:1"
         id="path12609" />
      <path
         d="M 446.8412,684.58439 C 446.8412,686.24039 445.4972,687.58439 443.8412,687.58439 C 442.1852,687.58439 440.8412,686.24039 440.8412,684.58439 C 440.8412,682.92839 442.1852,681.58439 443.8412,681.58439 C 445.4972,681.58439 446.8412,682.92839 446.8412,684.58439 z "
         style=";fill-rule:evenodd;;stroke-width:0.6pt;marker-start:none;marker-end:none"
         id="path12611" />
    </g>
    <g
       style=";fill-opacity:0"
       id="g12617">
      <path
         d="M 52.991239,75.639549 L 70.848561,75.639549"
         transform="translate(392.07141,600.07642)"
         style=";fill-opacity:0;fill-rule:evenodd;;stroke-width:7.4;stroke-linecap:butt;stroke-linejoin:miter;stroke-miterlimit:4;stroke-dasharray:none;stroke-opacity:1"
         id="path12613" />
      <path
         d="M 62.428035,65.041302 L 62.428035,75.349186"
         transform="translate(392.07141,600.07642)"
         style=";fill-opacity:0;fill-rule:evenodd;;stroke-width:5;stroke-linecap:butt;stroke-linejoin:miter;stroke-miterlimit:4;stroke-dasharray:none;stroke-opacity:1"
         id="path12615" />
    </g>
    <g
       transform="translate(0,-60.105131)"
       style=";fill-opacity:0"
       id="g12649">
      <path
         d="M 52.991239,75.639549 L 70.848561,75.639549"
         transform="translate(392.07141,600.07642)"
         style=";fill-opacity:0;fill-rule:evenodd;;stroke-width:7.4;stroke-linecap:butt;stroke-linejoin:miter;stroke-miterlimit:4;stroke-dasharray:none;stroke-opacity:1"
         id="path12651" />
      <path
         d="M 62.428035,65.041302 L 62.428035,75.349186"
         transform="translate(392.07141,600.07642)"
         style=";fill-opacity:0;fill-rule:evenodd;;stroke-width:5;stroke-linecap:butt;stroke-linejoin:miter;stroke-miterlimit:4;stroke-dasharray:none;stroke-opacity:1"
         id="path12653" />
    </g>
  </g>
</svg>
